%TF.GenerationSoftware,KiCad,Pcbnew,(6.0.5-0)*%
%TF.CreationDate,2023-12-07T08:40:20-07:00*%
%TF.ProjectId,sega-800-0374,73656761-2d38-4303-902d-303337342e6b,rev?*%
%TF.SameCoordinates,Original*%
%TF.FileFunction,Soldermask,Bot*%
%TF.FilePolarity,Negative*%
%FSLAX46Y46*%
G04 Gerber Fmt 4.6, Leading zero omitted, Abs format (unit mm)*
G04 Created by KiCad (PCBNEW (6.0.5-0)) date 2023-12-07 08:40:20*
%MOMM*%
%LPD*%
G01*
G04 APERTURE LIST*
G04 Aperture macros list*
%AMRoundRect*
0 Rectangle with rounded corners*
0 $1 Rounding radius*
0 $2 $3 $4 $5 $6 $7 $8 $9 X,Y pos of 4 corners*
0 Add a 4 corners polygon primitive as box body*
4,1,4,$2,$3,$4,$5,$6,$7,$8,$9,$2,$3,0*
0 Add four circle primitives for the rounded corners*
1,1,$1+$1,$2,$3*
1,1,$1+$1,$4,$5*
1,1,$1+$1,$6,$7*
1,1,$1+$1,$8,$9*
0 Add four rect primitives between the rounded corners*
20,1,$1+$1,$2,$3,$4,$5,0*
20,1,$1+$1,$4,$5,$6,$7,0*
20,1,$1+$1,$6,$7,$8,$9,0*
20,1,$1+$1,$8,$9,$2,$3,0*%
G04 Aperture macros list end*
%ADD10O,1.600000X1.600000*%
%ADD11R,1.600000X1.600000*%
%ADD12C,1.600000*%
%ADD13C,2.670000*%
%ADD14R,2.670000X2.670000*%
%ADD15O,3.160000X4.200000*%
%ADD16O,3.159999X4.199999*%
%ADD17RoundRect,0.250000X-1.330000X-1.850000X1.330000X-1.850000X1.330000X1.850000X-1.330000X1.850000X0*%
G04 APERTURE END LIST*
D10*
%TO.C,U5*%
X115811500Y-101589000D03*
X115811500Y-104129000D03*
X115811500Y-106669000D03*
X115811500Y-109209000D03*
X115811500Y-111749000D03*
X115811500Y-114289000D03*
X115811500Y-116829000D03*
X108191500Y-116829000D03*
X108191500Y-114289000D03*
X108191500Y-111749000D03*
X108191500Y-109209000D03*
X108191500Y-106669000D03*
X108191500Y-104129000D03*
D11*
X108191500Y-101589000D03*
%TD*%
D10*
%TO.C,C25*%
X108241501Y-97314004D03*
D12*
X115741501Y-97314004D03*
%TD*%
D10*
%TO.C,U3*%
X115711500Y-69214000D03*
X115711500Y-71754000D03*
X115711500Y-74294000D03*
X115711500Y-76834000D03*
X115711500Y-79374000D03*
X115711500Y-81914000D03*
X115711500Y-84454000D03*
X115711500Y-86994000D03*
X115711500Y-89534000D03*
X115711500Y-92074000D03*
X108091500Y-92074000D03*
X108091500Y-89534000D03*
X108091500Y-86994000D03*
X108091500Y-84454000D03*
X108091500Y-81914000D03*
X108091500Y-79374000D03*
X108091500Y-76834000D03*
X108091500Y-74294000D03*
X108091500Y-71754000D03*
D11*
X108091500Y-69214000D03*
%TD*%
D10*
%TO.C,C22*%
X92341507Y-64913993D03*
D12*
X99841507Y-64913993D03*
%TD*%
D10*
%TO.C,C24*%
X92641507Y-97314004D03*
D12*
X100141507Y-97314004D03*
%TD*%
D10*
%TO.C,C4*%
X78541509Y-102313994D03*
D12*
X86041509Y-102313994D03*
%TD*%
D13*
%TO.C,P10*%
X141241501Y-79413989D03*
X134891501Y-79413989D03*
X128541501Y-79413989D03*
X141241501Y-85763989D03*
X134891501Y-85763989D03*
X128541501Y-85763989D03*
X141241501Y-92113989D03*
X134891501Y-92113989D03*
X128541501Y-92113989D03*
X141241501Y-98463989D03*
X134891501Y-98463989D03*
X128541501Y-98463989D03*
X141241501Y-104813989D03*
X134891501Y-104813989D03*
D14*
X128541501Y-104813989D03*
%TD*%
D11*
%TO.C,RN1*%
X98971500Y-122414000D03*
D10*
X101511506Y-122414005D03*
X104051506Y-122414005D03*
X106591506Y-122414005D03*
X109131506Y-122414005D03*
X111671500Y-122414000D03*
X114211500Y-122414000D03*
X116751500Y-122414000D03*
X119291500Y-122414000D03*
%TD*%
D11*
%TO.C,U1*%
X76491500Y-76689000D03*
D10*
X76491500Y-79229000D03*
X76491500Y-81769000D03*
X76491500Y-84309000D03*
X76491500Y-86849000D03*
X76491500Y-89389000D03*
X76491500Y-91929000D03*
X84111500Y-91929000D03*
X84111500Y-89389000D03*
X84111500Y-86849000D03*
X84111500Y-84309000D03*
X84111500Y-81769000D03*
X84111500Y-79229000D03*
X84111500Y-76689000D03*
%TD*%
%TO.C,C23*%
X108041501Y-65113992D03*
D12*
X115541501Y-65113992D03*
%TD*%
D10*
%TO.C,R1*%
X85991497Y-105434003D03*
D12*
X85991497Y-115594003D03*
%TD*%
D10*
%TO.C,R2*%
X78991511Y-110554008D03*
D12*
X78991511Y-120714008D03*
%TD*%
%TO.C,C1*%
X84141500Y-72414000D03*
D10*
X76641500Y-72414000D03*
%TD*%
D11*
%TO.C,U2*%
X92391500Y-69089000D03*
D10*
X92391500Y-71629000D03*
X92391500Y-74169000D03*
X92391500Y-76709000D03*
X92391500Y-79249000D03*
X92391500Y-81789000D03*
X92391500Y-84329000D03*
X92391500Y-86869000D03*
X92391500Y-89409000D03*
X92391500Y-91949000D03*
X100011500Y-91949000D03*
X100011500Y-89409000D03*
X100011500Y-86869000D03*
X100011500Y-84329000D03*
X100011500Y-81789000D03*
X100011500Y-79249000D03*
X100011500Y-76709000D03*
X100011500Y-74169000D03*
X100011500Y-71629000D03*
X100011500Y-69089000D03*
%TD*%
D12*
%TO.C,C3*%
X131038849Y-114313995D03*
D11*
X128538849Y-114313995D03*
%TD*%
D15*
%TO.C,P30*%
X130471510Y-130239008D03*
X126511510Y-130239008D03*
X122551510Y-130239008D03*
X118591510Y-130239008D03*
D16*
X114631521Y-130239008D03*
X110671508Y-130239008D03*
X106711521Y-130239008D03*
X102751509Y-130239008D03*
D15*
X98791510Y-130239008D03*
X94831510Y-130239008D03*
X90871510Y-130239008D03*
D17*
X86911510Y-130239008D03*
%TD*%
D10*
%TO.C,U4*%
X100311500Y-101614000D03*
X100311500Y-104154000D03*
X100311500Y-106694000D03*
X100311500Y-109234000D03*
X100311500Y-111774000D03*
X100311500Y-114314000D03*
X100311500Y-116854000D03*
X92691500Y-116854000D03*
X92691500Y-114314000D03*
X92691500Y-111774000D03*
X92691500Y-109234000D03*
X92691500Y-106694000D03*
X92691500Y-104154000D03*
D11*
X92691509Y-101613995D03*
%TD*%
D10*
%TO.C,R3*%
X82791503Y-110533993D03*
D12*
X82791503Y-120693993D03*
%TD*%
M02*
