M48
; DRILL file {KiCad (6.0.5-0)} date Thursday, December 07, 2023 at 08:40:25 AM
; FORMAT={-:-/ absolute / inch / decimal}
; #@! TF.CreationDate,2023-12-07T08:40:25-07:00
; #@! TF.GenerationSoftware,Kicad,Pcbnew,(6.0.5-0)
; #@! TF.FileFunction,Plated,1,2,PTH
FMAT,2
INCH
; #@! TA.AperFunction,Plated,PTH,ComponentDrill
T1C0.0315
; #@! TA.AperFunction,Plated,PTH,ComponentDrill
T2C0.0701
; #@! TA.AperFunction,Plated,PTH,ComponentDrill
T3C0.0709
; #@! TA.AperFunction,Plated,PTH,ViaDrill
T4C0.1800
%
G90
G05
T1
X3.0115Y-3.0193
X3.0115Y-3.1193
X3.0115Y-3.2193
X3.0115Y-3.3193
X3.0115Y-3.4193
X3.0115Y-3.5193
X3.0115Y-3.6193
X3.0174Y-2.8509
X3.0922Y-4.0281
X3.1099Y-4.3525
X3.1099Y-4.7525
X3.2595Y-4.3517
X3.2595Y-4.7517
X3.3115Y-3.0193
X3.3115Y-3.1193
X3.3115Y-3.2193
X3.3115Y-3.3193
X3.3115Y-3.4193
X3.3115Y-3.5193
X3.3115Y-3.6193
X3.3127Y-2.8509
X3.3855Y-4.1509
X3.3855Y-4.5509
X3.3875Y-4.0281
X3.6355Y-2.5557
X3.6375Y-2.72
X3.6375Y-2.82
X3.6375Y-2.92
X3.6375Y-3.02
X3.6375Y-3.12
X3.6375Y-3.22
X3.6375Y-3.32
X3.6375Y-3.42
X3.6375Y-3.52
X3.6375Y-3.62
X3.6473Y-3.8313
X3.6493Y-4.1006
X3.6493Y-4.2006
X3.6493Y-4.3006
X3.6493Y-4.4006
X3.6493Y-4.5006
X3.6493Y-4.6006
X3.6493Y-4.0006
X3.8965Y-4.8194
X3.9308Y-2.5557
X3.9375Y-2.72
X3.9375Y-2.82
X3.9375Y-2.92
X3.9375Y-3.02
X3.9375Y-3.12
X3.9375Y-3.22
X3.9375Y-3.32
X3.9375Y-3.42
X3.9375Y-3.52
X3.9375Y-3.62
X3.9426Y-3.8313
X3.9493Y-4.0006
X3.9493Y-4.1006
X3.9493Y-4.2006
X3.9493Y-4.3006
X3.9493Y-4.4006
X3.9493Y-4.5006
X3.9493Y-4.6006
X3.9965Y-4.8194
X4.0965Y-4.8194
X4.1965Y-4.8194
X4.2536Y-2.5635
X4.2556Y-2.725
X4.2556Y-2.825
X4.2556Y-2.925
X4.2556Y-3.025
X4.2556Y-3.125
X4.2556Y-3.225
X4.2556Y-3.325
X4.2556Y-3.425
X4.2556Y-3.525
X4.2556Y-3.625
X4.2595Y-3.9996
X4.2595Y-4.0996
X4.2595Y-4.1996
X4.2595Y-4.2996
X4.2595Y-4.3996
X4.2595Y-4.4996
X4.2595Y-4.5996
X4.2615Y-3.8313
X4.2965Y-4.8194
X4.3965Y-4.8194
X4.4965Y-4.8194
X4.5489Y-2.5635
X4.5556Y-2.725
X4.5556Y-2.825
X4.5556Y-2.925
X4.5556Y-3.025
X4.5556Y-3.125
X4.5556Y-3.225
X4.5556Y-3.325
X4.5556Y-3.425
X4.5556Y-3.525
X4.5556Y-3.625
X4.5568Y-3.8313
X4.5595Y-3.9996
X4.5595Y-4.0996
X4.5595Y-4.1996
X4.5595Y-4.2996
X4.5595Y-4.3996
X4.5595Y-4.4996
X4.5595Y-4.5996
X4.5965Y-4.8194
X4.6965Y-4.8194
X5.0606Y-4.5006
X5.159Y-4.5006
T2
X5.0607Y-3.1265
X5.0607Y-3.3765
X5.0607Y-3.6265
X5.0607Y-3.8765
X5.0607Y-4.1265
X5.3107Y-3.1265
X5.3107Y-3.3765
X5.3107Y-3.6265
X5.3107Y-3.8765
X5.3107Y-4.1265
X5.5607Y-3.1265
X5.5607Y-3.3765
X5.5607Y-3.6265
X5.5607Y-3.8765
X5.5607Y-4.1265
T3
X3.4217Y-5.1275
X3.5776Y-5.1275
X3.7335Y-5.1275
X3.8894Y-5.1275
X4.0453Y-5.1275
X4.2012Y-5.1275
X4.3571Y-5.1275
X4.5131Y-5.1275
X4.669Y-5.1275
X4.8249Y-5.1275
X4.9808Y-5.1275
X5.1367Y-5.1275
T4
X2.9241Y-5.11
X2.9241Y-2.61
X5.6241Y-5.11
X5.6257Y-2.6226
T0
M30
