%TF.GenerationSoftware,KiCad,Pcbnew,(6.0.5-0)*%
%TF.CreationDate,2023-12-07T08:40:20-07:00*%
%TF.ProjectId,sega-800-0374,73656761-2d38-4303-902d-303337342e6b,rev?*%
%TF.SameCoordinates,Original*%
%TF.FileFunction,Soldermask,Top*%
%TF.FilePolarity,Negative*%
%FSLAX46Y46*%
G04 Gerber Fmt 4.6, Leading zero omitted, Abs format (unit mm)*
G04 Created by KiCad (PCBNEW (6.0.5-0)) date 2023-12-07 08:40:20*
%MOMM*%
%LPD*%
G01*
G04 APERTURE LIST*
G04 Aperture macros list*
%AMRoundRect*
0 Rectangle with rounded corners*
0 $1 Rounding radius*
0 $2 $3 $4 $5 $6 $7 $8 $9 X,Y pos of 4 corners*
0 Add a 4 corners polygon primitive as box body*
4,1,4,$2,$3,$4,$5,$6,$7,$8,$9,$2,$3,0*
0 Add four circle primitives for the rounded corners*
1,1,$1+$1,$2,$3*
1,1,$1+$1,$4,$5*
1,1,$1+$1,$6,$7*
1,1,$1+$1,$8,$9*
0 Add four rect primitives between the rounded corners*
20,1,$1+$1,$2,$3,$4,$5,0*
20,1,$1+$1,$4,$5,$6,$7,0*
20,1,$1+$1,$6,$7,$8,$9,0*
20,1,$1+$1,$8,$9,$2,$3,0*%
G04 Aperture macros list end*
%ADD10C,0.203200*%
%ADD11O,1.600000X1.600000*%
%ADD12R,1.600000X1.600000*%
%ADD13C,1.600000*%
%ADD14C,2.670000*%
%ADD15R,2.670000X2.670000*%
%ADD16O,3.160000X4.200000*%
%ADD17O,3.159999X4.199999*%
%ADD18RoundRect,0.250000X-1.330000X-1.850000X1.330000X-1.850000X1.330000X1.850000X-1.330000X1.850000X0*%
G04 APERTURE END LIST*
D10*
X121855309Y-65725221D02*
X121794833Y-65785697D01*
X121613404Y-65846173D01*
X121492452Y-65846173D01*
X121311023Y-65785697D01*
X121190071Y-65664745D01*
X121129595Y-65543792D01*
X121069119Y-65301888D01*
X121069119Y-65120459D01*
X121129595Y-64878554D01*
X121190071Y-64757602D01*
X121311023Y-64636650D01*
X121492452Y-64576173D01*
X121613404Y-64576173D01*
X121794833Y-64636650D01*
X121855309Y-64697126D01*
X122641500Y-64576173D02*
X122883404Y-64576173D01*
X123004357Y-64636650D01*
X123125309Y-64757602D01*
X123185785Y-64999507D01*
X123185785Y-65422840D01*
X123125309Y-65664745D01*
X123004357Y-65785697D01*
X122883404Y-65846173D01*
X122641500Y-65846173D01*
X122520547Y-65785697D01*
X122399595Y-65664745D01*
X122339119Y-65422840D01*
X122339119Y-64999507D01*
X122399595Y-64757602D01*
X122520547Y-64636650D01*
X122641500Y-64576173D01*
X123730071Y-65846173D02*
X123730071Y-64576173D01*
X124455785Y-65846173D01*
X124455785Y-64576173D01*
X124879119Y-64576173D02*
X125604833Y-64576173D01*
X125241976Y-65846173D02*
X125241976Y-64576173D01*
X126753880Y-65846173D02*
X126330547Y-65241411D01*
X126028166Y-65846173D02*
X126028166Y-64576173D01*
X126511976Y-64576173D01*
X126632928Y-64636650D01*
X126693404Y-64697126D01*
X126753880Y-64818078D01*
X126753880Y-64999507D01*
X126693404Y-65120459D01*
X126632928Y-65180935D01*
X126511976Y-65241411D01*
X126028166Y-65241411D01*
X127540071Y-64576173D02*
X127781976Y-64576173D01*
X127902928Y-64636650D01*
X128023880Y-64757602D01*
X128084357Y-64999507D01*
X128084357Y-65422840D01*
X128023880Y-65664745D01*
X127902928Y-65785697D01*
X127781976Y-65846173D01*
X127540071Y-65846173D01*
X127419119Y-65785697D01*
X127298166Y-65664745D01*
X127237690Y-65422840D01*
X127237690Y-64999507D01*
X127298166Y-64757602D01*
X127419119Y-64636650D01*
X127540071Y-64576173D01*
X129233404Y-65846173D02*
X128628642Y-65846173D01*
X128628642Y-64576173D01*
X130624357Y-65846173D02*
X130624357Y-64576173D01*
X131108166Y-64576173D01*
X131229119Y-64636650D01*
X131289595Y-64697126D01*
X131350071Y-64818078D01*
X131350071Y-64999507D01*
X131289595Y-65120459D01*
X131229119Y-65180935D01*
X131108166Y-65241411D01*
X130624357Y-65241411D01*
X131833880Y-65483316D02*
X132438642Y-65483316D01*
X131712928Y-65846173D02*
X132136261Y-64576173D01*
X132559595Y-65846173D01*
X132982928Y-65846173D02*
X132982928Y-64576173D01*
X133708642Y-65846173D01*
X133708642Y-64576173D01*
X134313404Y-65180935D02*
X134736738Y-65180935D01*
X134918166Y-65846173D02*
X134313404Y-65846173D01*
X134313404Y-64576173D01*
X134918166Y-64576173D01*
X136067214Y-65846173D02*
X135462452Y-65846173D01*
X135462452Y-64576173D01*
X118347690Y-67890873D02*
X118347690Y-66620873D01*
X118952452Y-67890873D02*
X118952452Y-66620873D01*
X119678166Y-67890873D01*
X119678166Y-66620873D01*
X120101500Y-66620873D02*
X120827214Y-66620873D01*
X120464357Y-67890873D02*
X120464357Y-66620873D01*
X121250547Y-67225635D02*
X121673880Y-67225635D01*
X121855309Y-67890873D02*
X121250547Y-67890873D01*
X121250547Y-66620873D01*
X121855309Y-66620873D01*
X123125309Y-67890873D02*
X122701976Y-67286111D01*
X122399595Y-67890873D02*
X122399595Y-66620873D01*
X122883404Y-66620873D01*
X123004357Y-66681350D01*
X123064833Y-66741826D01*
X123125309Y-66862778D01*
X123125309Y-67044207D01*
X123064833Y-67165159D01*
X123004357Y-67225635D01*
X122883404Y-67286111D01*
X122399595Y-67286111D01*
X124092928Y-67225635D02*
X123669595Y-67225635D01*
X123669595Y-67890873D02*
X123669595Y-66620873D01*
X124274357Y-66620873D01*
X124697690Y-67528016D02*
X125302452Y-67528016D01*
X124576738Y-67890873D02*
X125000071Y-66620873D01*
X125423404Y-67890873D01*
X126572452Y-67769921D02*
X126511976Y-67830397D01*
X126330547Y-67890873D01*
X126209595Y-67890873D01*
X126028166Y-67830397D01*
X125907214Y-67709445D01*
X125846738Y-67588492D01*
X125786261Y-67346588D01*
X125786261Y-67165159D01*
X125846738Y-66923254D01*
X125907214Y-66802302D01*
X126028166Y-66681350D01*
X126209595Y-66620873D01*
X126330547Y-66620873D01*
X126511976Y-66681350D01*
X126572452Y-66741826D01*
X127116738Y-67225635D02*
X127540071Y-67225635D01*
X127721500Y-67890873D02*
X127116738Y-67890873D01*
X127116738Y-66620873D01*
X127721500Y-66620873D01*
X129414833Y-67165159D02*
X129293880Y-67104683D01*
X129233404Y-67044207D01*
X129172928Y-66923254D01*
X129172928Y-66862778D01*
X129233404Y-66741826D01*
X129293880Y-66681350D01*
X129414833Y-66620873D01*
X129656738Y-66620873D01*
X129777690Y-66681350D01*
X129838166Y-66741826D01*
X129898642Y-66862778D01*
X129898642Y-66923254D01*
X129838166Y-67044207D01*
X129777690Y-67104683D01*
X129656738Y-67165159D01*
X129414833Y-67165159D01*
X129293880Y-67225635D01*
X129233404Y-67286111D01*
X129172928Y-67407064D01*
X129172928Y-67648969D01*
X129233404Y-67769921D01*
X129293880Y-67830397D01*
X129414833Y-67890873D01*
X129656738Y-67890873D01*
X129777690Y-67830397D01*
X129838166Y-67769921D01*
X129898642Y-67648969D01*
X129898642Y-67407064D01*
X129838166Y-67286111D01*
X129777690Y-67225635D01*
X129656738Y-67165159D01*
X130684833Y-66620873D02*
X130805785Y-66620873D01*
X130926738Y-66681350D01*
X130987214Y-66741826D01*
X131047690Y-66862778D01*
X131108166Y-67104683D01*
X131108166Y-67407064D01*
X131047690Y-67648969D01*
X130987214Y-67769921D01*
X130926738Y-67830397D01*
X130805785Y-67890873D01*
X130684833Y-67890873D01*
X130563880Y-67830397D01*
X130503404Y-67769921D01*
X130442928Y-67648969D01*
X130382452Y-67407064D01*
X130382452Y-67104683D01*
X130442928Y-66862778D01*
X130503404Y-66741826D01*
X130563880Y-66681350D01*
X130684833Y-66620873D01*
X131894357Y-66620873D02*
X132015309Y-66620873D01*
X132136261Y-66681350D01*
X132196738Y-66741826D01*
X132257214Y-66862778D01*
X132317690Y-67104683D01*
X132317690Y-67407064D01*
X132257214Y-67648969D01*
X132196738Y-67769921D01*
X132136261Y-67830397D01*
X132015309Y-67890873D01*
X131894357Y-67890873D01*
X131773404Y-67830397D01*
X131712928Y-67769921D01*
X131652452Y-67648969D01*
X131591976Y-67407064D01*
X131591976Y-67104683D01*
X131652452Y-66862778D01*
X131712928Y-66741826D01*
X131773404Y-66681350D01*
X131894357Y-66620873D01*
X132861976Y-67407064D02*
X133829595Y-67407064D01*
X134676261Y-66620873D02*
X134797214Y-66620873D01*
X134918166Y-66681350D01*
X134978642Y-66741826D01*
X135039119Y-66862778D01*
X135099595Y-67104683D01*
X135099595Y-67407064D01*
X135039119Y-67648969D01*
X134978642Y-67769921D01*
X134918166Y-67830397D01*
X134797214Y-67890873D01*
X134676261Y-67890873D01*
X134555309Y-67830397D01*
X134494833Y-67769921D01*
X134434357Y-67648969D01*
X134373880Y-67407064D01*
X134373880Y-67104683D01*
X134434357Y-66862778D01*
X134494833Y-66741826D01*
X134555309Y-66681350D01*
X134676261Y-66620873D01*
X135522928Y-66620873D02*
X136309119Y-66620873D01*
X135885785Y-67104683D01*
X136067214Y-67104683D01*
X136188166Y-67165159D01*
X136248642Y-67225635D01*
X136309119Y-67346588D01*
X136309119Y-67648969D01*
X136248642Y-67769921D01*
X136188166Y-67830397D01*
X136067214Y-67890873D01*
X135704357Y-67890873D01*
X135583404Y-67830397D01*
X135522928Y-67769921D01*
X136732452Y-66620873D02*
X137579119Y-66620873D01*
X137034833Y-67890873D01*
X138607214Y-67044207D02*
X138607214Y-67890873D01*
X138304833Y-66560397D02*
X138002452Y-67467540D01*
X138788642Y-67467540D01*
%TO.C,G\u002A\u002A\u002A*%
G36*
X141668828Y-120691918D02*
G01*
X141065017Y-120691918D01*
X141065017Y-120237811D01*
X141668828Y-120237811D01*
X141668828Y-120691918D01*
G37*
G36*
X144398455Y-120691918D02*
G01*
X143794643Y-120691918D01*
X143794643Y-120237811D01*
X144398455Y-120237811D01*
X144398455Y-120691918D01*
G37*
G36*
X140761813Y-121828391D02*
G01*
X140763111Y-121602625D01*
X141065017Y-121599983D01*
X141065017Y-121146024D01*
X141668828Y-121146024D01*
X141668828Y-120691918D01*
X142122832Y-120691918D01*
X142124131Y-120917723D01*
X142125429Y-121143529D01*
X143338042Y-121143529D01*
X143339341Y-120917723D01*
X143340639Y-120691918D01*
X143794643Y-120691918D01*
X143794643Y-121146024D01*
X144398455Y-121146024D01*
X144398455Y-121599983D01*
X144700361Y-121602625D01*
X144701659Y-121828391D01*
X144702957Y-122054158D01*
X145003565Y-122055444D01*
X145304172Y-122056731D01*
X145305437Y-122739177D01*
X145306703Y-123421622D01*
X145006027Y-123420336D01*
X144705351Y-123419049D01*
X144700361Y-122510837D01*
X144560636Y-122509437D01*
X144523754Y-122509167D01*
X144489715Y-122509107D01*
X144459920Y-122509243D01*
X144435770Y-122509564D01*
X144418666Y-122510058D01*
X144410010Y-122510711D01*
X144409683Y-122510780D01*
X144398455Y-122513522D01*
X144398455Y-123421544D01*
X143944450Y-123421544D01*
X143943152Y-123647350D01*
X143941854Y-123873155D01*
X142883936Y-123873155D01*
X142882638Y-123647376D01*
X142881339Y-123421597D01*
X143336744Y-123420323D01*
X143792148Y-123419049D01*
X143793447Y-123193244D01*
X143794745Y-122967438D01*
X141668726Y-122967438D01*
X141670025Y-123193244D01*
X141671323Y-123419049D01*
X142126728Y-123420323D01*
X142582132Y-123421597D01*
X142580834Y-123647376D01*
X142579535Y-123873155D01*
X142052679Y-123874426D01*
X141981000Y-123874567D01*
X141912135Y-123874642D01*
X141846739Y-123874654D01*
X141785467Y-123874604D01*
X141728976Y-123874496D01*
X141677920Y-123874332D01*
X141632957Y-123874114D01*
X141594740Y-123873846D01*
X141563927Y-123873529D01*
X141541173Y-123873166D01*
X141527134Y-123872760D01*
X141522472Y-123872346D01*
X141521780Y-123866814D01*
X141521136Y-123852320D01*
X141520555Y-123829880D01*
X141520053Y-123800514D01*
X141519644Y-123765239D01*
X141519343Y-123725072D01*
X141519166Y-123681031D01*
X141519123Y-123645271D01*
X141519123Y-123421544D01*
X141065017Y-123421544D01*
X141065017Y-122513522D01*
X141053789Y-122510780D01*
X141045992Y-122510112D01*
X141029618Y-122509603D01*
X141006066Y-122509266D01*
X140976739Y-122509111D01*
X140943037Y-122509153D01*
X140906362Y-122509403D01*
X140902836Y-122509437D01*
X140763111Y-122510837D01*
X140758121Y-123419049D01*
X140457445Y-123420336D01*
X140156769Y-123421622D01*
X140158034Y-122739177D01*
X140159300Y-122056731D01*
X140459907Y-122055444D01*
X140742281Y-122054236D01*
X141519021Y-122054236D01*
X141973229Y-122054236D01*
X143340436Y-122054236D01*
X143794643Y-122054236D01*
X143794643Y-121605310D01*
X143783416Y-121602581D01*
X143776162Y-121602035D01*
X143760019Y-121601589D01*
X143736078Y-121601249D01*
X143705431Y-121601023D01*
X143669168Y-121600917D01*
X143628380Y-121600936D01*
X143584159Y-121601089D01*
X143557610Y-121601239D01*
X143343032Y-121602625D01*
X143341734Y-121828430D01*
X143340436Y-122054236D01*
X141973229Y-122054236D01*
X141973229Y-121600028D01*
X141747423Y-121601326D01*
X141521618Y-121602625D01*
X141520319Y-121828430D01*
X141519021Y-122054236D01*
X140742281Y-122054236D01*
X140760514Y-122054158D01*
X140761813Y-121828391D01*
G37*
%TD*%
D11*
%TO.C,U5*%
X115811500Y-101589000D03*
X115811500Y-104129000D03*
X115811500Y-106669000D03*
X115811500Y-109209000D03*
X115811500Y-111749000D03*
X115811500Y-114289000D03*
X115811500Y-116829000D03*
X108191500Y-116829000D03*
X108191500Y-114289000D03*
X108191500Y-111749000D03*
X108191500Y-109209000D03*
X108191500Y-106669000D03*
X108191500Y-104129000D03*
D12*
X108191500Y-101589000D03*
%TD*%
D11*
%TO.C,C25*%
X108241501Y-97314004D03*
D13*
X115741501Y-97314004D03*
%TD*%
D11*
%TO.C,U3*%
X115711500Y-69214000D03*
X115711500Y-71754000D03*
X115711500Y-74294000D03*
X115711500Y-76834000D03*
X115711500Y-79374000D03*
X115711500Y-81914000D03*
X115711500Y-84454000D03*
X115711500Y-86994000D03*
X115711500Y-89534000D03*
X115711500Y-92074000D03*
X108091500Y-92074000D03*
X108091500Y-89534000D03*
X108091500Y-86994000D03*
X108091500Y-84454000D03*
X108091500Y-81914000D03*
X108091500Y-79374000D03*
X108091500Y-76834000D03*
X108091500Y-74294000D03*
X108091500Y-71754000D03*
D12*
X108091500Y-69214000D03*
%TD*%
D11*
%TO.C,C22*%
X92341507Y-64913993D03*
D13*
X99841507Y-64913993D03*
%TD*%
D11*
%TO.C,C24*%
X92641507Y-97314004D03*
D13*
X100141507Y-97314004D03*
%TD*%
D11*
%TO.C,C4*%
X78541509Y-102313994D03*
D13*
X86041509Y-102313994D03*
%TD*%
D14*
%TO.C,P10*%
X141241501Y-79413989D03*
X134891501Y-79413989D03*
X128541501Y-79413989D03*
X141241501Y-85763989D03*
X134891501Y-85763989D03*
X128541501Y-85763989D03*
X141241501Y-92113989D03*
X134891501Y-92113989D03*
X128541501Y-92113989D03*
X141241501Y-98463989D03*
X134891501Y-98463989D03*
X128541501Y-98463989D03*
X141241501Y-104813989D03*
X134891501Y-104813989D03*
D15*
X128541501Y-104813989D03*
%TD*%
D12*
%TO.C,RN1*%
X98971500Y-122414000D03*
D11*
X101511506Y-122414005D03*
X104051506Y-122414005D03*
X106591506Y-122414005D03*
X109131506Y-122414005D03*
X111671500Y-122414000D03*
X114211500Y-122414000D03*
X116751500Y-122414000D03*
X119291500Y-122414000D03*
%TD*%
D12*
%TO.C,U1*%
X76491500Y-76689000D03*
D11*
X76491500Y-79229000D03*
X76491500Y-81769000D03*
X76491500Y-84309000D03*
X76491500Y-86849000D03*
X76491500Y-89389000D03*
X76491500Y-91929000D03*
X84111500Y-91929000D03*
X84111500Y-89389000D03*
X84111500Y-86849000D03*
X84111500Y-84309000D03*
X84111500Y-81769000D03*
X84111500Y-79229000D03*
X84111500Y-76689000D03*
%TD*%
%TO.C,C23*%
X108041501Y-65113992D03*
D13*
X115541501Y-65113992D03*
%TD*%
D11*
%TO.C,R1*%
X85991497Y-105434003D03*
D13*
X85991497Y-115594003D03*
%TD*%
D11*
%TO.C,R2*%
X78991511Y-110554008D03*
D13*
X78991511Y-120714008D03*
%TD*%
%TO.C,C1*%
X84141500Y-72414000D03*
D11*
X76641500Y-72414000D03*
%TD*%
D12*
%TO.C,U2*%
X92391500Y-69089000D03*
D11*
X92391500Y-71629000D03*
X92391500Y-74169000D03*
X92391500Y-76709000D03*
X92391500Y-79249000D03*
X92391500Y-81789000D03*
X92391500Y-84329000D03*
X92391500Y-86869000D03*
X92391500Y-89409000D03*
X92391500Y-91949000D03*
X100011500Y-91949000D03*
X100011500Y-89409000D03*
X100011500Y-86869000D03*
X100011500Y-84329000D03*
X100011500Y-81789000D03*
X100011500Y-79249000D03*
X100011500Y-76709000D03*
X100011500Y-74169000D03*
X100011500Y-71629000D03*
X100011500Y-69089000D03*
%TD*%
D13*
%TO.C,C3*%
X131038849Y-114313995D03*
D12*
X128538849Y-114313995D03*
%TD*%
D16*
%TO.C,P30*%
X130471510Y-130239008D03*
X126511510Y-130239008D03*
X122551510Y-130239008D03*
X118591510Y-130239008D03*
D17*
X114631521Y-130239008D03*
X110671508Y-130239008D03*
X106711521Y-130239008D03*
X102751509Y-130239008D03*
D16*
X98791510Y-130239008D03*
X94831510Y-130239008D03*
X90871510Y-130239008D03*
D18*
X86911510Y-130239008D03*
%TD*%
D11*
%TO.C,U4*%
X100311500Y-101614000D03*
X100311500Y-104154000D03*
X100311500Y-106694000D03*
X100311500Y-109234000D03*
X100311500Y-111774000D03*
X100311500Y-114314000D03*
X100311500Y-116854000D03*
X92691500Y-116854000D03*
X92691500Y-114314000D03*
X92691500Y-111774000D03*
X92691500Y-109234000D03*
X92691500Y-106694000D03*
X92691500Y-104154000D03*
D12*
X92691509Y-101613995D03*
%TD*%
D11*
%TO.C,R3*%
X82791503Y-110533993D03*
D13*
X82791503Y-120693993D03*
%TD*%
M02*
