%TF.GenerationSoftware,KiCad,Pcbnew,(6.0.5-0)*%
%TF.CreationDate,2023-12-07T08:40:20-07:00*%
%TF.ProjectId,sega-800-0374,73656761-2d38-4303-902d-303337342e6b,rev?*%
%TF.SameCoordinates,Original*%
%TF.FileFunction,Legend,Top*%
%TF.FilePolarity,Positive*%
%FSLAX46Y46*%
G04 Gerber Fmt 4.6, Leading zero omitted, Abs format (unit mm)*
G04 Created by KiCad (PCBNEW (6.0.5-0)) date 2023-12-07 08:40:20*
%MOMM*%
%LPD*%
G01*
G04 APERTURE LIST*
%ADD10C,0.203200*%
%ADD11C,0.150000*%
%ADD12C,0.120000*%
%ADD13C,0.200000*%
G04 APERTURE END LIST*
D10*
%TO.C,U5*%
X104623888Y-100918518D02*
X104623888Y-101946614D01*
X104684365Y-102067566D01*
X104744841Y-102128042D01*
X104865793Y-102188518D01*
X105107698Y-102188518D01*
X105228650Y-102128042D01*
X105289127Y-102067566D01*
X105349603Y-101946614D01*
X105349603Y-100918518D01*
X106559127Y-100918518D02*
X105954365Y-100918518D01*
X105893888Y-101523280D01*
X105954365Y-101462804D01*
X106075317Y-101402328D01*
X106377698Y-101402328D01*
X106498650Y-101462804D01*
X106559127Y-101523280D01*
X106619603Y-101644233D01*
X106619603Y-101946614D01*
X106559127Y-102067566D01*
X106498650Y-102128042D01*
X106377698Y-102188518D01*
X106075317Y-102188518D01*
X105954365Y-102128042D01*
X105893888Y-102067566D01*
%TO.C,C25*%
X104275080Y-97767575D02*
X104214604Y-97828051D01*
X104033175Y-97888527D01*
X103912223Y-97888527D01*
X103730794Y-97828051D01*
X103609842Y-97707099D01*
X103549366Y-97586146D01*
X103488889Y-97344242D01*
X103488889Y-97162813D01*
X103549366Y-96920908D01*
X103609842Y-96799956D01*
X103730794Y-96679004D01*
X103912223Y-96618527D01*
X104033175Y-96618527D01*
X104214604Y-96679004D01*
X104275080Y-96739480D01*
X104758889Y-96739480D02*
X104819366Y-96679004D01*
X104940318Y-96618527D01*
X105242699Y-96618527D01*
X105363651Y-96679004D01*
X105424128Y-96739480D01*
X105484604Y-96860432D01*
X105484604Y-96981384D01*
X105424128Y-97162813D01*
X104698413Y-97888527D01*
X105484604Y-97888527D01*
X106633651Y-96618527D02*
X106028889Y-96618527D01*
X105968413Y-97223289D01*
X106028889Y-97162813D01*
X106149842Y-97102337D01*
X106452223Y-97102337D01*
X106573175Y-97162813D01*
X106633651Y-97223289D01*
X106694128Y-97344242D01*
X106694128Y-97646623D01*
X106633651Y-97767575D01*
X106573175Y-97828051D01*
X106452223Y-97888527D01*
X106149842Y-97888527D01*
X106028889Y-97828051D01*
X105968413Y-97767575D01*
%TO.C,U3*%
X104323880Y-68518523D02*
X104323880Y-69546619D01*
X104384357Y-69667571D01*
X104444833Y-69728047D01*
X104565785Y-69788523D01*
X104807690Y-69788523D01*
X104928642Y-69728047D01*
X104989119Y-69667571D01*
X105049595Y-69546619D01*
X105049595Y-68518523D01*
X105533404Y-68518523D02*
X106319595Y-68518523D01*
X105896261Y-69002333D01*
X106077690Y-69002333D01*
X106198642Y-69062809D01*
X106259119Y-69123285D01*
X106319595Y-69244238D01*
X106319595Y-69546619D01*
X106259119Y-69667571D01*
X106198642Y-69728047D01*
X106077690Y-69788523D01*
X105714833Y-69788523D01*
X105593880Y-69728047D01*
X105533404Y-69667571D01*
%TO.C,C22*%
X88275062Y-65367564D02*
X88214586Y-65428040D01*
X88033157Y-65488516D01*
X87912205Y-65488516D01*
X87730776Y-65428040D01*
X87609824Y-65307088D01*
X87549348Y-65186135D01*
X87488871Y-64944231D01*
X87488871Y-64762802D01*
X87549348Y-64520897D01*
X87609824Y-64399945D01*
X87730776Y-64278993D01*
X87912205Y-64218516D01*
X88033157Y-64218516D01*
X88214586Y-64278993D01*
X88275062Y-64339469D01*
X88758871Y-64339469D02*
X88819348Y-64278993D01*
X88940300Y-64218516D01*
X89242681Y-64218516D01*
X89363633Y-64278993D01*
X89424110Y-64339469D01*
X89484586Y-64460421D01*
X89484586Y-64581373D01*
X89424110Y-64762802D01*
X88698395Y-65488516D01*
X89484586Y-65488516D01*
X89968395Y-64339469D02*
X90028871Y-64278993D01*
X90149824Y-64218516D01*
X90452205Y-64218516D01*
X90573157Y-64278993D01*
X90633633Y-64339469D01*
X90694110Y-64460421D01*
X90694110Y-64581373D01*
X90633633Y-64762802D01*
X89907919Y-65488516D01*
X90694110Y-65488516D01*
%TO.C,C24*%
X88475061Y-97767575D02*
X88414585Y-97828051D01*
X88233156Y-97888527D01*
X88112204Y-97888527D01*
X87930775Y-97828051D01*
X87809823Y-97707099D01*
X87749347Y-97586146D01*
X87688870Y-97344242D01*
X87688870Y-97162813D01*
X87749347Y-96920908D01*
X87809823Y-96799956D01*
X87930775Y-96679004D01*
X88112204Y-96618527D01*
X88233156Y-96618527D01*
X88414585Y-96679004D01*
X88475061Y-96739480D01*
X88958870Y-96739480D02*
X89019347Y-96679004D01*
X89140299Y-96618527D01*
X89442680Y-96618527D01*
X89563632Y-96679004D01*
X89624109Y-96739480D01*
X89684585Y-96860432D01*
X89684585Y-96981384D01*
X89624109Y-97162813D01*
X88898394Y-97888527D01*
X89684585Y-97888527D01*
X90773156Y-97041861D02*
X90773156Y-97888527D01*
X90470775Y-96558051D02*
X90168394Y-97465194D01*
X90954585Y-97465194D01*
%TO.C,C4*%
X75079826Y-102767565D02*
X75019350Y-102828041D01*
X74837921Y-102888517D01*
X74716969Y-102888517D01*
X74535540Y-102828041D01*
X74414588Y-102707089D01*
X74354112Y-102586136D01*
X74293635Y-102344232D01*
X74293635Y-102162803D01*
X74354112Y-101920898D01*
X74414588Y-101799946D01*
X74535540Y-101678994D01*
X74716969Y-101618517D01*
X74837921Y-101618517D01*
X75019350Y-101678994D01*
X75079826Y-101739470D01*
X76168397Y-102041851D02*
X76168397Y-102888517D01*
X75866016Y-101558041D02*
X75563635Y-102465184D01*
X76349826Y-102465184D01*
%TO.C,P10*%
X119749357Y-109688523D02*
X119749357Y-108418523D01*
X120233166Y-108418523D01*
X120354119Y-108479000D01*
X120414595Y-108539476D01*
X120475071Y-108660428D01*
X120475071Y-108841857D01*
X120414595Y-108962809D01*
X120354119Y-109023285D01*
X120233166Y-109083761D01*
X119749357Y-109083761D01*
X121684595Y-109688523D02*
X120958880Y-109688523D01*
X121321738Y-109688523D02*
X121321738Y-108418523D01*
X121200785Y-108599952D01*
X121079833Y-108720904D01*
X120958880Y-108781380D01*
X122470785Y-108418523D02*
X122591738Y-108418523D01*
X122712690Y-108479000D01*
X122773166Y-108539476D01*
X122833642Y-108660428D01*
X122894119Y-108902333D01*
X122894119Y-109204714D01*
X122833642Y-109446619D01*
X122773166Y-109567571D01*
X122712690Y-109628047D01*
X122591738Y-109688523D01*
X122470785Y-109688523D01*
X122349833Y-109628047D01*
X122289357Y-109567571D01*
X122228880Y-109446619D01*
X122168404Y-109204714D01*
X122168404Y-108902333D01*
X122228880Y-108660428D01*
X122289357Y-108539476D01*
X122349833Y-108479000D01*
X122470785Y-108418523D01*
%TO.C,RN1*%
X94614598Y-123088527D02*
X94191264Y-122483765D01*
X93888883Y-123088527D02*
X93888883Y-121818527D01*
X94372693Y-121818527D01*
X94493645Y-121879004D01*
X94554122Y-121939480D01*
X94614598Y-122060432D01*
X94614598Y-122241861D01*
X94554122Y-122362813D01*
X94493645Y-122423289D01*
X94372693Y-122483765D01*
X93888883Y-122483765D01*
X95158883Y-123088527D02*
X95158883Y-121818527D01*
X95884598Y-123088527D01*
X95884598Y-121818527D01*
X97154598Y-123088527D02*
X96428883Y-123088527D01*
X96791741Y-123088527D02*
X96791741Y-121818527D01*
X96670788Y-121999956D01*
X96549836Y-122120908D01*
X96428883Y-122181384D01*
%TO.C,U1*%
X72523876Y-75918518D02*
X72523876Y-76946614D01*
X72584353Y-77067566D01*
X72644829Y-77128042D01*
X72765781Y-77188518D01*
X73007686Y-77188518D01*
X73128638Y-77128042D01*
X73189115Y-77067566D01*
X73249591Y-76946614D01*
X73249591Y-75918518D01*
X74519591Y-77188518D02*
X73793876Y-77188518D01*
X74156734Y-77188518D02*
X74156734Y-75918518D01*
X74035781Y-76099947D01*
X73914829Y-76220899D01*
X73793876Y-76281375D01*
%TO.C,C23*%
X104075081Y-65567563D02*
X104014605Y-65628039D01*
X103833176Y-65688515D01*
X103712224Y-65688515D01*
X103530795Y-65628039D01*
X103409843Y-65507087D01*
X103349367Y-65386134D01*
X103288890Y-65144230D01*
X103288890Y-64962801D01*
X103349367Y-64720896D01*
X103409843Y-64599944D01*
X103530795Y-64478992D01*
X103712224Y-64418515D01*
X103833176Y-64418515D01*
X104014605Y-64478992D01*
X104075081Y-64539468D01*
X104558890Y-64539468D02*
X104619367Y-64478992D01*
X104740319Y-64418515D01*
X105042700Y-64418515D01*
X105163652Y-64478992D01*
X105224129Y-64539468D01*
X105284605Y-64660420D01*
X105284605Y-64781372D01*
X105224129Y-64962801D01*
X104498414Y-65688515D01*
X105284605Y-65688515D01*
X105707938Y-64418515D02*
X106494129Y-64418515D01*
X106070795Y-64902325D01*
X106252224Y-64902325D01*
X106373176Y-64962801D01*
X106433652Y-65023277D01*
X106494129Y-65144230D01*
X106494129Y-65446611D01*
X106433652Y-65567563D01*
X106373176Y-65628039D01*
X106252224Y-65688515D01*
X105889367Y-65688515D01*
X105768414Y-65628039D01*
X105707938Y-65567563D01*
%TO.C,R1*%
X82779836Y-109088530D02*
X82356503Y-108483768D01*
X82054122Y-109088530D02*
X82054122Y-107818530D01*
X82537931Y-107818530D01*
X82658883Y-107879007D01*
X82719360Y-107939483D01*
X82779836Y-108060435D01*
X82779836Y-108241864D01*
X82719360Y-108362816D01*
X82658883Y-108423292D01*
X82537931Y-108483768D01*
X82054122Y-108483768D01*
X83989360Y-109088530D02*
X83263645Y-109088530D01*
X83626503Y-109088530D02*
X83626503Y-107818530D01*
X83505550Y-107999959D01*
X83384598Y-108120911D01*
X83263645Y-108181387D01*
%TO.C,R2*%
X78779844Y-123788526D02*
X78356511Y-123183764D01*
X78054130Y-123788526D02*
X78054130Y-122518526D01*
X78537939Y-122518526D01*
X78658891Y-122579003D01*
X78719368Y-122639479D01*
X78779844Y-122760431D01*
X78779844Y-122941860D01*
X78719368Y-123062812D01*
X78658891Y-123123288D01*
X78537939Y-123183764D01*
X78054130Y-123183764D01*
X79263653Y-122639479D02*
X79324130Y-122579003D01*
X79445082Y-122518526D01*
X79747463Y-122518526D01*
X79868415Y-122579003D01*
X79928891Y-122639479D01*
X79989368Y-122760431D01*
X79989368Y-122881383D01*
X79928891Y-123062812D01*
X79203177Y-123788526D01*
X79989368Y-123788526D01*
%TO.C,C1*%
X73179830Y-72767574D02*
X73119354Y-72828050D01*
X72937925Y-72888526D01*
X72816973Y-72888526D01*
X72635544Y-72828050D01*
X72514592Y-72707098D01*
X72454116Y-72586145D01*
X72393639Y-72344241D01*
X72393639Y-72162812D01*
X72454116Y-71920907D01*
X72514592Y-71799955D01*
X72635544Y-71679003D01*
X72816973Y-71618526D01*
X72937925Y-71618526D01*
X73119354Y-71679003D01*
X73179830Y-71739479D01*
X74389354Y-72888526D02*
X73663639Y-72888526D01*
X74026497Y-72888526D02*
X74026497Y-71618526D01*
X73905544Y-71799955D01*
X73784592Y-71920907D01*
X73663639Y-71981383D01*
%TO.C,U2*%
X88623870Y-68618532D02*
X88623870Y-69646628D01*
X88684347Y-69767580D01*
X88744823Y-69828056D01*
X88865775Y-69888532D01*
X89107680Y-69888532D01*
X89228632Y-69828056D01*
X89289109Y-69767580D01*
X89349585Y-69646628D01*
X89349585Y-68618532D01*
X89893870Y-68739485D02*
X89954347Y-68679009D01*
X90075299Y-68618532D01*
X90377680Y-68618532D01*
X90498632Y-68679009D01*
X90559109Y-68739485D01*
X90619585Y-68860437D01*
X90619585Y-68981389D01*
X90559109Y-69162818D01*
X89833394Y-69888532D01*
X90619585Y-69888532D01*
%TO.C,C3*%
X123879820Y-114767566D02*
X123819344Y-114828042D01*
X123637915Y-114888518D01*
X123516963Y-114888518D01*
X123335534Y-114828042D01*
X123214582Y-114707090D01*
X123154106Y-114586137D01*
X123093629Y-114344233D01*
X123093629Y-114162804D01*
X123154106Y-113920899D01*
X123214582Y-113799947D01*
X123335534Y-113678995D01*
X123516963Y-113618518D01*
X123637915Y-113618518D01*
X123819344Y-113678995D01*
X123879820Y-113739471D01*
X124303153Y-113618518D02*
X125089344Y-113618518D01*
X124666010Y-114102328D01*
X124847439Y-114102328D01*
X124968391Y-114162804D01*
X125028867Y-114223280D01*
X125089344Y-114344233D01*
X125089344Y-114646614D01*
X125028867Y-114767566D01*
X124968391Y-114828042D01*
X124847439Y-114888518D01*
X124484582Y-114888518D01*
X124363629Y-114828042D01*
X124303153Y-114767566D01*
D11*
%TO.C,P30*%
X81377214Y-130766380D02*
X81377214Y-129766380D01*
X81758166Y-129766380D01*
X81853404Y-129814000D01*
X81901023Y-129861619D01*
X81948642Y-129956857D01*
X81948642Y-130099714D01*
X81901023Y-130194952D01*
X81853404Y-130242571D01*
X81758166Y-130290190D01*
X81377214Y-130290190D01*
X82281976Y-129766380D02*
X82901023Y-129766380D01*
X82567690Y-130147333D01*
X82710547Y-130147333D01*
X82805785Y-130194952D01*
X82853404Y-130242571D01*
X82901023Y-130337809D01*
X82901023Y-130575904D01*
X82853404Y-130671142D01*
X82805785Y-130718761D01*
X82710547Y-130766380D01*
X82424833Y-130766380D01*
X82329595Y-130718761D01*
X82281976Y-130671142D01*
X83520071Y-129766380D02*
X83615309Y-129766380D01*
X83710547Y-129814000D01*
X83758166Y-129861619D01*
X83805785Y-129956857D01*
X83853404Y-130147333D01*
X83853404Y-130385428D01*
X83805785Y-130575904D01*
X83758166Y-130671142D01*
X83710547Y-130718761D01*
X83615309Y-130766380D01*
X83520071Y-130766380D01*
X83424833Y-130718761D01*
X83377214Y-130671142D01*
X83329595Y-130575904D01*
X83281976Y-130385428D01*
X83281976Y-130147333D01*
X83329595Y-129956857D01*
X83377214Y-129861619D01*
X83424833Y-129814000D01*
X83520071Y-129766380D01*
D10*
%TO.C,U4*%
X88923869Y-100918518D02*
X88923869Y-101946614D01*
X88984346Y-102067566D01*
X89044822Y-102128042D01*
X89165774Y-102188518D01*
X89407679Y-102188518D01*
X89528631Y-102128042D01*
X89589108Y-102067566D01*
X89649584Y-101946614D01*
X89649584Y-100918518D01*
X90798631Y-101341852D02*
X90798631Y-102188518D01*
X90496250Y-100858042D02*
X90193869Y-101765185D01*
X90980060Y-101765185D01*
%TO.C,R3*%
X82579836Y-123788526D02*
X82156503Y-123183764D01*
X81854122Y-123788526D02*
X81854122Y-122518526D01*
X82337931Y-122518526D01*
X82458883Y-122579003D01*
X82519360Y-122639479D01*
X82579836Y-122760431D01*
X82579836Y-122941860D01*
X82519360Y-123062812D01*
X82458883Y-123123288D01*
X82337931Y-123183764D01*
X81854122Y-123183764D01*
X83003169Y-122518526D02*
X83789360Y-122518526D01*
X83366026Y-123002336D01*
X83547455Y-123002336D01*
X83668407Y-123062812D01*
X83728883Y-123123288D01*
X83789360Y-123244241D01*
X83789360Y-123546622D01*
X83728883Y-123667574D01*
X83668407Y-123728050D01*
X83547455Y-123788526D01*
X83184598Y-123788526D01*
X83063645Y-123728050D01*
X83003169Y-123667574D01*
D12*
%TO.C,U5*%
X111001500Y-100259000D02*
G75*
G03*
X113001500Y-100259000I1000000J0D01*
G01*
X111001500Y-100259000D02*
X109351500Y-100259000D01*
X109351500Y-100259000D02*
X109351500Y-118159000D01*
X114651500Y-118159000D02*
X114651500Y-100259000D01*
X109351500Y-118159000D02*
X114651500Y-118159000D01*
X114651500Y-100259000D02*
X113001500Y-100259000D01*
%TO.C,C25*%
X109321501Y-98984004D02*
X114661501Y-98984004D01*
X114661501Y-95644004D02*
X109321501Y-95644004D01*
X114701501Y-97314004D02*
X114661501Y-97314004D01*
X114661501Y-98984004D02*
X114661501Y-95644004D01*
X109281501Y-97314004D02*
X109321501Y-97314004D01*
X109321501Y-95644004D02*
X109321501Y-98984004D01*
%TO.C,U3*%
X110901500Y-67884000D02*
G75*
G03*
X112901500Y-67884000I1000000J0D01*
G01*
X109251500Y-93404000D02*
X114551500Y-93404000D01*
X114551500Y-67884000D02*
X112901500Y-67884000D01*
X114551500Y-93404000D02*
X114551500Y-67884000D01*
X110901500Y-67884000D02*
X109251500Y-67884000D01*
X109251500Y-67884000D02*
X109251500Y-93404000D01*
%TO.C,C22*%
X98761507Y-63243993D02*
X93421507Y-63243993D01*
X98761507Y-66583993D02*
X98761507Y-63243993D01*
X98801507Y-64913993D02*
X98761507Y-64913993D01*
X93381507Y-64913993D02*
X93421507Y-64913993D01*
X93421507Y-63243993D02*
X93421507Y-66583993D01*
X93421507Y-66583993D02*
X98761507Y-66583993D01*
%TO.C,C24*%
X93721507Y-98984004D02*
X99061507Y-98984004D01*
X99061507Y-95644004D02*
X93721507Y-95644004D01*
X99061507Y-98984004D02*
X99061507Y-95644004D01*
X93681507Y-97314004D02*
X93721507Y-97314004D01*
X93721507Y-95644004D02*
X93721507Y-98984004D01*
X99101507Y-97314004D02*
X99061507Y-97314004D01*
%TO.C,C4*%
X85001509Y-102313994D02*
X84961509Y-102313994D01*
X79581509Y-102313994D02*
X79621509Y-102313994D01*
X84961509Y-103983994D02*
X84961509Y-100643994D01*
X79621509Y-100643994D02*
X79621509Y-103983994D01*
X79621509Y-103983994D02*
X84961509Y-103983994D01*
X84961509Y-100643994D02*
X79621509Y-100643994D01*
D13*
%TO.C,P10*%
X124141501Y-104813989D02*
G75*
G03*
X124041501Y-104813989I-50000J0D01*
G01*
X124041501Y-104813989D02*
G75*
G03*
X124141501Y-104813989I50000J0D01*
G01*
X124041501Y-104813989D02*
G75*
G03*
X124141501Y-104813989I50000J0D01*
G01*
X124141501Y-104813989D02*
X124141501Y-104813989D01*
X124731501Y-108623989D02*
X145091501Y-108623989D01*
X124041501Y-104813989D02*
X124041501Y-104813989D01*
X145091501Y-108623989D02*
X145051501Y-75603989D01*
X124041501Y-104813989D02*
X124041501Y-104813989D01*
X124731501Y-75603989D02*
X124731501Y-108623989D01*
X145051501Y-75603989D02*
X124691501Y-75603989D01*
D12*
%TO.C,RN1*%
X100241500Y-121014000D02*
X100241500Y-123814000D01*
X120731500Y-123814000D02*
X120731500Y-121014000D01*
X97531500Y-123814000D02*
X120731500Y-123814000D01*
X120731500Y-121014000D02*
X97531500Y-121014000D01*
X97531500Y-121014000D02*
X97531500Y-123814000D01*
%TO.C,U1*%
X82951500Y-75359000D02*
X81301500Y-75359000D01*
X82951500Y-93259000D02*
X82951500Y-75359000D01*
X79301500Y-75359000D02*
X77651500Y-75359000D01*
X77651500Y-75359000D02*
X77651500Y-93259000D01*
X77651500Y-93259000D02*
X82951500Y-93259000D01*
X79301500Y-75359000D02*
G75*
G03*
X81301500Y-75359000I1000000J0D01*
G01*
%TO.C,C23*%
X114461501Y-63443992D02*
X109121501Y-63443992D01*
X114461501Y-66783992D02*
X114461501Y-63443992D01*
X109081501Y-65113992D02*
X109121501Y-65113992D01*
X109121501Y-63443992D02*
X109121501Y-66783992D01*
X109121501Y-66783992D02*
X114461501Y-66783992D01*
X114501501Y-65113992D02*
X114461501Y-65113992D01*
%TO.C,R1*%
X87361497Y-113784003D02*
X87361497Y-107244003D01*
X87361497Y-107244003D02*
X84621497Y-107244003D01*
X85991497Y-106474003D02*
X85991497Y-107244003D01*
X85991497Y-114554003D02*
X85991497Y-113784003D01*
X84621497Y-107244003D02*
X84621497Y-113784003D01*
X84621497Y-113784003D02*
X87361497Y-113784003D01*
%TO.C,R2*%
X78991511Y-119674008D02*
X78991511Y-118904008D01*
X80361511Y-118904008D02*
X80361511Y-112364008D01*
X80361511Y-112364008D02*
X77621511Y-112364008D01*
X77621511Y-112364008D02*
X77621511Y-118904008D01*
X77621511Y-118904008D02*
X80361511Y-118904008D01*
X78991511Y-111594008D02*
X78991511Y-112364008D01*
%TO.C,C1*%
X77721500Y-74084000D02*
X83061500Y-74084000D01*
X83061500Y-74084000D02*
X83061500Y-70744000D01*
X83061500Y-70744000D02*
X77721500Y-70744000D01*
X77721500Y-70744000D02*
X77721500Y-74084000D01*
X83101500Y-72414000D02*
X83061500Y-72414000D01*
X77681500Y-72414000D02*
X77721500Y-72414000D01*
%TO.C,U2*%
X98851500Y-67759000D02*
X97201500Y-67759000D01*
X93551500Y-67759000D02*
X93551500Y-93279000D01*
X95201500Y-67759000D02*
X93551500Y-67759000D01*
X93551500Y-93279000D02*
X98851500Y-93279000D01*
X98851500Y-93279000D02*
X98851500Y-67759000D01*
X95201500Y-67759000D02*
G75*
G03*
X97201500Y-67759000I1000000J0D01*
G01*
%TO.C,C3*%
X133908849Y-114313995D02*
G75*
G03*
X133908849Y-114313995I-4120000J0D01*
G01*
X131709849Y-115353995D02*
X131709849Y-117919995D01*
X131429849Y-110573995D02*
X131429849Y-113273995D01*
X130028849Y-115353995D02*
X130028849Y-118387995D01*
X133109849Y-111913995D02*
X133109849Y-116713995D01*
X131549849Y-110627995D02*
X131549849Y-113273995D01*
X133469849Y-112500995D02*
X133469849Y-116126995D01*
X131309849Y-110523995D02*
X131309849Y-113273995D01*
X132229849Y-111033995D02*
X132229849Y-117593995D01*
X133389849Y-112349995D02*
X133389849Y-116277995D01*
X133189849Y-112026995D02*
X133189849Y-116600995D01*
X130909849Y-115353995D02*
X130909849Y-118238995D01*
X131269849Y-110508995D02*
X131269849Y-113273995D01*
X125779151Y-111598995D02*
X125779151Y-112398995D01*
X133349849Y-112279995D02*
X133349849Y-116347995D01*
X130789849Y-110356995D02*
X130789849Y-113273995D01*
X133229849Y-112085995D02*
X133229849Y-116541995D01*
X132109849Y-110948995D02*
X132109849Y-117678995D01*
X130589849Y-110311995D02*
X130589849Y-113273995D01*
X131989849Y-110869995D02*
X131989849Y-113273995D01*
X130388849Y-110276995D02*
X130388849Y-113273995D01*
X132349849Y-111124995D02*
X132349849Y-117502995D01*
X130308849Y-115353995D02*
X130308849Y-118361995D01*
X130228849Y-115353995D02*
X130228849Y-118370995D01*
X131909849Y-110820995D02*
X131909849Y-113273995D01*
X132469849Y-111223995D02*
X132469849Y-117403995D01*
X130989849Y-110411995D02*
X130989849Y-113273995D01*
X131189849Y-110478995D02*
X131189849Y-113273995D01*
X132629849Y-111368995D02*
X132629849Y-117258995D01*
X130068849Y-115353995D02*
X130068849Y-118384995D01*
X130709849Y-110337995D02*
X130709849Y-113273995D01*
X130068849Y-110242995D02*
X130068849Y-113273995D01*
X129908849Y-110234995D02*
X129908849Y-118392995D01*
X132789849Y-111529995D02*
X132789849Y-117097995D01*
X131189849Y-115353995D02*
X131189849Y-118148995D01*
X130709849Y-115353995D02*
X130709849Y-118289995D01*
X131469849Y-110591995D02*
X131469849Y-113273995D01*
X131709849Y-110707995D02*
X131709849Y-113273995D01*
X133549849Y-112668995D02*
X133549849Y-115958995D01*
X132989849Y-111757995D02*
X132989849Y-116869995D01*
X131789849Y-110751995D02*
X131789849Y-113273995D01*
X131229849Y-115353995D02*
X131229849Y-118134995D01*
X130348849Y-110271995D02*
X130348849Y-113273995D01*
X131069849Y-110436995D02*
X131069849Y-113273995D01*
X130629849Y-110319995D02*
X130629849Y-113273995D01*
X133869849Y-113780995D02*
X133869849Y-114846995D01*
X130108849Y-110245995D02*
X130108849Y-113273995D01*
X132829849Y-111572995D02*
X132829849Y-117054995D01*
X131749849Y-115353995D02*
X131749849Y-117897995D01*
X131829849Y-110773995D02*
X131829849Y-113273995D01*
X131789849Y-115353995D02*
X131789849Y-117875995D01*
X130388849Y-115353995D02*
X130388849Y-118350995D01*
X130789849Y-115353995D02*
X130789849Y-118270995D01*
X132189849Y-111004995D02*
X132189849Y-117622995D01*
X130428849Y-110283995D02*
X130428849Y-113273995D01*
X133829849Y-113545995D02*
X133829849Y-115081995D01*
X132149849Y-110975995D02*
X132149849Y-117651995D01*
X130669849Y-115353995D02*
X130669849Y-118298995D01*
X132029849Y-110895995D02*
X132029849Y-113273995D01*
X131949849Y-115353995D02*
X131949849Y-117782995D01*
X129788849Y-110233995D02*
X129788849Y-118393995D01*
X130829849Y-110366995D02*
X130829849Y-113273995D01*
X133069849Y-111859995D02*
X133069849Y-116767995D01*
X131149849Y-110463995D02*
X131149849Y-113273995D01*
X132909849Y-111662995D02*
X132909849Y-116964995D01*
X130428849Y-115353995D02*
X130428849Y-118343995D01*
X130509849Y-110296995D02*
X130509849Y-113273995D01*
X130749849Y-110346995D02*
X130749849Y-113273995D01*
X131109849Y-115353995D02*
X131109849Y-118176995D01*
X131909849Y-115353995D02*
X131909849Y-117806995D01*
X131149849Y-115353995D02*
X131149849Y-118163995D01*
X133589849Y-112761995D02*
X133589849Y-115865995D01*
X132429849Y-111189995D02*
X132429849Y-117437995D01*
X133029849Y-111808995D02*
X133029849Y-116818995D01*
X130589849Y-115353995D02*
X130589849Y-118315995D01*
X131269849Y-115353995D02*
X131269849Y-118118995D01*
X131029849Y-115353995D02*
X131029849Y-118202995D01*
X132949849Y-111709995D02*
X132949849Y-116917995D01*
X131309849Y-115353995D02*
X131309849Y-118103995D01*
X130949849Y-115353995D02*
X130949849Y-118227995D01*
X133709849Y-113084995D02*
X133709849Y-115542995D01*
X130949849Y-110399995D02*
X130949849Y-113273995D01*
X130348849Y-115353995D02*
X130348849Y-118355995D01*
X130108849Y-115353995D02*
X130108849Y-118381995D01*
X133269849Y-112147995D02*
X133269849Y-116479995D01*
X132709849Y-111446995D02*
X132709849Y-117180995D01*
X132269849Y-111063995D02*
X132269849Y-117563995D01*
X133149849Y-111968995D02*
X133149849Y-116658995D01*
X130268849Y-110261995D02*
X130268849Y-113273995D01*
X131229849Y-110492995D02*
X131229849Y-113273995D01*
X133309849Y-112211995D02*
X133309849Y-116415995D01*
X132589849Y-111330995D02*
X132589849Y-117296995D01*
X131749849Y-110729995D02*
X131749849Y-113273995D01*
X131829849Y-115353995D02*
X131829849Y-117853995D01*
X131069849Y-115353995D02*
X131069849Y-118190995D01*
X131549849Y-115353995D02*
X131549849Y-117999995D01*
X130468849Y-110289995D02*
X130468849Y-113273995D01*
X132549849Y-111294995D02*
X132549849Y-117332995D01*
X130909849Y-110388995D02*
X130909849Y-113273995D01*
X133789849Y-113365995D02*
X133789849Y-115261995D01*
X130188849Y-110252995D02*
X130188849Y-113273995D01*
X131949849Y-110844995D02*
X131949849Y-113273995D01*
X130228849Y-110256995D02*
X130228849Y-113273995D01*
X132029849Y-115353995D02*
X132029849Y-117731995D01*
X132749849Y-111487995D02*
X132749849Y-117139995D01*
X130749849Y-115353995D02*
X130749849Y-118280995D01*
X130028849Y-110239995D02*
X130028849Y-113273995D01*
X130468849Y-115353995D02*
X130468849Y-118337995D01*
X129828849Y-110233995D02*
X129828849Y-118393995D01*
X132309849Y-111093995D02*
X132309849Y-117533995D01*
X129948849Y-110236995D02*
X129948849Y-118390995D01*
X130989849Y-115353995D02*
X130989849Y-118215995D01*
X130188849Y-115353995D02*
X130188849Y-118374995D01*
X133629849Y-112860995D02*
X133629849Y-115766995D01*
X129988849Y-110237995D02*
X129988849Y-118389995D01*
X129868849Y-110233995D02*
X129868849Y-118393995D01*
X131509849Y-115353995D02*
X131509849Y-118017995D01*
X131349849Y-115353995D02*
X131349849Y-118087995D01*
X131869849Y-110796995D02*
X131869849Y-113273995D01*
X133669849Y-112967995D02*
X133669849Y-115659995D01*
X131629849Y-115353995D02*
X131629849Y-117960995D01*
X130268849Y-115353995D02*
X130268849Y-118365995D01*
X132069849Y-110921995D02*
X132069849Y-113273995D01*
X130308849Y-110265995D02*
X130308849Y-113273995D01*
X131389849Y-115353995D02*
X131389849Y-118070995D01*
X131669849Y-110686995D02*
X131669849Y-113273995D01*
X132869849Y-111616995D02*
X132869849Y-117010995D01*
X132509849Y-111258995D02*
X132509849Y-117368995D01*
X130629849Y-115353995D02*
X130629849Y-118307995D01*
X131429849Y-115353995D02*
X131429849Y-118053995D01*
X130549849Y-115353995D02*
X130549849Y-118323995D01*
X130549849Y-110303995D02*
X130549849Y-113273995D01*
X130509849Y-115353995D02*
X130509849Y-118330995D01*
X131389849Y-110556995D02*
X131389849Y-113273995D01*
X130148849Y-110248995D02*
X130148849Y-113273995D01*
X133509849Y-112582995D02*
X133509849Y-116044995D01*
X130148849Y-115353995D02*
X130148849Y-118378995D01*
X130869849Y-115353995D02*
X130869849Y-118249995D01*
X131989849Y-115353995D02*
X131989849Y-117757995D01*
X132069849Y-115353995D02*
X132069849Y-117705995D01*
X125379151Y-111998995D02*
X126179151Y-111998995D01*
X130829849Y-115353995D02*
X130829849Y-118260995D01*
X131589849Y-115353995D02*
X131589849Y-117979995D01*
X130669849Y-110328995D02*
X130669849Y-113273995D01*
X131869849Y-115353995D02*
X131869849Y-117830995D01*
X132669849Y-111406995D02*
X132669849Y-117220995D01*
X131029849Y-110424995D02*
X131029849Y-113273995D01*
X131589849Y-110647995D02*
X131589849Y-113273995D01*
X130869849Y-110377995D02*
X130869849Y-113273995D01*
X131669849Y-115353995D02*
X131669849Y-117940995D01*
X133749849Y-113215995D02*
X133749849Y-115411995D01*
X133429849Y-112423995D02*
X133429849Y-116203995D01*
X131469849Y-115353995D02*
X131469849Y-118035995D01*
X131109849Y-110450995D02*
X131109849Y-113273995D01*
X131349849Y-110539995D02*
X131349849Y-113273995D01*
X131509849Y-110609995D02*
X131509849Y-113273995D01*
X131629849Y-110666995D02*
X131629849Y-113273995D01*
X132389849Y-111157995D02*
X132389849Y-117469995D01*
%TO.C,P30*%
X132181510Y-124529008D02*
X132181510Y-135499008D01*
X132181510Y-135499008D02*
X85201510Y-135499008D01*
X85201510Y-134499008D02*
X132181510Y-134499008D01*
X87481510Y-124929008D02*
X90181510Y-124929008D01*
X85201510Y-134499008D02*
X85201510Y-124529008D01*
X87481510Y-124529008D02*
X87481510Y-124929008D01*
X90181510Y-124929008D02*
X90181510Y-124529008D01*
X90181510Y-124529008D02*
X132181510Y-124529008D01*
X85201510Y-124529008D02*
X87481510Y-124529008D01*
X85201510Y-135499008D02*
X85201510Y-134499008D01*
X84911510Y-128239008D02*
X84911510Y-132239008D01*
%TO.C,U4*%
X95501500Y-100284000D02*
G75*
G03*
X97501500Y-100284000I1000000J0D01*
G01*
X95501500Y-100284000D02*
X93851500Y-100284000D01*
X99151500Y-118184000D02*
X99151500Y-100284000D01*
X93851500Y-118184000D02*
X99151500Y-118184000D01*
X99151500Y-100284000D02*
X97501500Y-100284000D01*
X93851500Y-100284000D02*
X93851500Y-118184000D01*
%TO.C,R3*%
X82791503Y-111573993D02*
X82791503Y-112343993D01*
X84161503Y-118883993D02*
X84161503Y-112343993D01*
X81421503Y-118883993D02*
X84161503Y-118883993D01*
X82791503Y-119653993D02*
X82791503Y-118883993D01*
X84161503Y-112343993D02*
X81421503Y-112343993D01*
X81421503Y-112343993D02*
X81421503Y-118883993D01*
%TD*%
M02*
